<svg width="30" height="30" fill="none" xmlns="http://www.w3.org/2000/svg"><circle cx="15" cy="15" r="15" fill="#94C3D9"/><path fill-rule="evenodd" clip-rule="evenodd" d="M14.2 12.437c.362-.489.492-1.004.082-1.459-.92-1.288-1.54-2.084-1.928-2.468-.738-.729-1.952-.63-2.592 0a58.8 58.8 0 0 0-.812.812c-1.964 1.965-.766 6.12 2.418 9.306 3.183 3.187 7.337 4.385 9.305 2.416.325-.314.6-.59.818-.819.627-.662.722-1.823-.004-2.577-.372-.387-1.132-.976-2.474-1.936-.411-.367-.898-.288-1.345.005-.215.141-.372.284-.667.58l-.536.536c-.071.071-1.03-.41-1.961-1.341-.932-.933-1.412-1.893-1.342-1.963l.537-.537c.094-.094.138-.139.196-.2.12-.125.219-.24.305-.355Zm3.254 5.386.537-.537a4.82 4.82 0 0 1 .353-.331c1.176.844 1.857 1.375 2.135 1.664.167.174.141.49-.004.643-.201.213-.462.474-.782.783-1.273 1.273-4.626.306-7.335-2.406-2.71-2.713-3.678-6.067-2.415-7.33.351-.357.463-.468.801-.802.127-.125.473-.153.627 0 .3.295.854 1.005 1.67 2.141a2.935 2.935 0 0 1-.16.18c-.047.049-.086.089-.172.175l-.536.536c-.912.912-.135 2.465 1.34 3.942 1.476 1.477 3.03 2.255 3.941 1.342Z" fill="#fff"/></svg>