<svg width="1600" height="960" viewBox="0 0 1600 960" fill="none" xmlns="http://www.w3.org/2000/svg">
  <defs>
    <linearGradient id="bg" x1="122" y1="102" x2="1470" y2="874" gradientUnits="userSpaceOnUse">
      <stop stop-color="#F8FBFF"/>
      <stop offset="0.48" stop-color="#EEF5FF"/>
      <stop offset="1" stop-color="#E1ECFC"/>
    </linearGradient>
    <radialGradient id="haloA" cx="0" cy="0" r="1" gradientUnits="userSpaceOnUse" gradientTransform="translate(314 214) rotate(47.5) scale(236 236)">
      <stop stop-color="#D8E7FF" stop-opacity="0.92"/>
      <stop offset="1" stop-color="#D8E7FF" stop-opacity="0"/>
    </radialGradient>
    <radialGradient id="haloB" cx="0" cy="0" r="1" gradientUnits="userSpaceOnUse" gradientTransform="translate(1268 210) rotate(127.2) scale(300 300)">
      <stop stop-color="#CADBFB" stop-opacity="0.9"/>
      <stop offset="1" stop-color="#CADBFB" stop-opacity="0"/>
    </radialGradient>
    <linearGradient id="line" x1="150" y1="730" x2="1450" y2="730" gradientUnits="userSpaceOnUse">
      <stop stop-color="#C7D8F5" stop-opacity="0"/>
      <stop offset="0.5" stop-color="#B8CBEA" stop-opacity="0.75"/>
      <stop offset="1" stop-color="#C7D8F5" stop-opacity="0"/>
    </linearGradient>
  </defs>
  <rect width="1600" height="960" rx="56" fill="url(#bg)"/>
  <circle cx="314" cy="214" r="236" fill="url(#haloA)"/>
  <circle cx="1268" cy="210" r="300" fill="url(#haloB)"/>
  <path d="M112 734H1488" stroke="url(#line)" stroke-width="4" stroke-linecap="round"/>
  <path d="M142 754H1458" stroke="#D6E2F6" stroke-width="1.5" stroke-linecap="round" opacity="0.6"/>
  <rect x="1080" y="120" width="280" height="168" rx="34" fill="#F5F9FF" fill-opacity="0.72"/>
  <rect x="118" y="618" width="220" height="110" rx="28" fill="#FDFEFF" fill-opacity="0.68"/>
  <rect x="1290" y="610" width="192" height="120" rx="30" fill="#F8FBFF" fill-opacity="0.66"/>
  <path d="M260 128C348 90 454 90 542 128" stroke="#D6E4FA" stroke-width="10" stroke-linecap="round" opacity="0.9"/>
  <path d="M1124 146C1190 116 1300 116 1366 146" stroke="#D6E4FA" stroke-width="10" stroke-linecap="round" opacity="0.75"/>
  <path d="M202 808C364 760 522 760 676 808" stroke="#C4D5F2" stroke-width="8" stroke-linecap="round" opacity="0.7"/>
  <path d="M874 818C1034 770 1206 770 1366 818" stroke="#C4D5F2" stroke-width="8" stroke-linecap="round" opacity="0.55"/>
</svg>
